<svg width="137" height="25" viewBox="0 0 137 25" fill="none" xmlns="http://www.w3.org/2000/svg">
<path d="M97.2743 0.48795H93.3752V20.1392H97.2743V0.48795Z" fill="#002B64"/>
<path d="M82.4838 10.6255H85.0572V20.1392H88.9562V10.6255H91.8416V7.50627H88.9562V5.50475C88.9562 4.67295 89.1122 4.12708 89.4241 3.86714C89.7361 3.58987 90.204 3.45124 90.8278 3.45124C91.0704 3.45124 91.287 3.47723 91.4776 3.52922C91.6683 3.56388 91.8762 3.62453 92.1015 3.71118L92.2834 0.409968C91.9195 0.323322 91.547 0.262671 91.1657 0.228013C90.7845 0.193355 90.3946 0.176025 89.996 0.176025C88.9389 0.176025 88.0811 0.314659 87.4226 0.591925C86.7814 0.851863 86.2876 1.21578 85.941 1.68366C85.5944 2.15155 85.3604 2.69742 85.2391 3.32127C85.1178 3.92779 85.0572 4.57764 85.0572 5.2708V7.50627H82.4838V10.6255Z" fill="#002B64"/>
<path fill-rule="evenodd" clip-rule="evenodd" d="M62.076 20.1392H65.6632V0.48795H61.7641V8.85795H61.7121C61.2616 8.25142 60.681 7.82686 59.9705 7.58425C59.2774 7.32431 58.5236 7.19434 57.7091 7.19434C56.808 7.19434 56.0022 7.38497 55.2917 7.76621C54.5812 8.13012 53.9747 8.624 53.4721 9.24785C52.9869 9.8717 52.6056 10.5909 52.3284 11.4053C52.0684 12.2025 51.9385 13.0429 51.9385 13.9267C51.9385 14.8798 52.0858 15.755 52.3804 16.5521C52.675 17.3492 53.0909 18.0424 53.6281 18.6316C54.1826 19.2035 54.8411 19.654 55.6036 19.9833C56.3661 20.2952 57.2152 20.4512 58.151 20.4512C58.5842 20.4512 59.0001 20.3905 59.3987 20.2692C59.8146 20.1479 60.1872 19.9919 60.5164 19.8013C60.863 19.6107 61.1576 19.4028 61.4002 19.1775C61.6601 18.9349 61.8681 18.7009 62.0241 18.4756H62.076V20.1392ZM61.2442 11.5093C61.7988 12.0985 62.076 12.8697 62.076 13.8228C62.076 14.7759 61.7988 15.547 61.2442 16.1362C60.707 16.7254 59.9446 17.02 58.9568 17.02C57.969 17.02 57.1979 16.7254 56.6434 16.1362C56.1061 15.547 55.8375 14.7759 55.8375 13.8228C55.8375 12.8697 56.1061 12.0985 56.6434 11.5093C57.1979 10.9201 57.969 10.6255 58.9568 10.6255C59.9446 10.6255 60.707 10.9201 61.2442 11.5093Z" fill="#002B64"/>
<path fill-rule="evenodd" clip-rule="evenodd" d="M47.072 19.8013C48.0251 19.3681 48.8135 18.7529 49.4374 17.9558L46.708 15.9542C46.3788 16.4048 45.9889 16.7774 45.5383 17.072C45.1051 17.3492 44.5679 17.4879 43.9267 17.4879C43.1642 17.4879 42.523 17.2713 42.0032 16.838C41.4833 16.3875 41.1454 15.7896 40.9894 15.0445H50.0352V13.8228C50.0352 12.8177 49.8966 11.9079 49.6193 11.0934C49.3421 10.2789 48.9435 9.58577 48.4236 9.01391C47.9211 8.42472 47.2972 7.97416 46.5521 7.66223C45.8243 7.35031 45.0098 7.19434 44.1087 7.19434C43.1382 7.19434 42.2198 7.35031 41.3533 7.66223C40.5042 7.97416 39.759 8.42472 39.1179 9.01391C38.494 9.58577 38.0001 10.2789 37.6362 11.0934C37.2723 11.9079 37.0903 12.8177 37.0903 13.8228C37.0903 14.8278 37.2723 15.7376 37.6362 16.5521C38.0001 17.3666 38.494 18.0684 39.1179 18.6576C39.759 19.2295 40.5042 19.6714 41.3533 19.9833C42.2198 20.2952 43.1382 20.4512 44.1087 20.4512C45.1311 20.4512 46.1188 20.2346 47.072 19.8013ZM45.4863 10.7035C45.9369 11.1714 46.1535 11.7346 46.1362 12.3931H40.9894C41.0067 12.0812 41.0761 11.7866 41.1974 11.5093C41.336 11.2147 41.5179 10.9634 41.7432 10.7555C41.9858 10.5302 42.2718 10.3483 42.601 10.2096C42.9303 10.071 43.3115 10.0017 43.7447 10.0017C44.4552 10.0017 45.0358 10.2356 45.4863 10.7035Z" fill="#002B64"/>
<path d="M80.9445 20.1392H77.2014V18.4237H77.1494C77.0108 18.6663 76.8288 18.9089 76.6035 19.1515C76.3956 19.3941 76.1356 19.6107 75.8237 19.8013C75.5118 19.9919 75.1565 20.1479 74.758 20.2692C74.3594 20.3905 73.9262 20.4512 73.4583 20.4512C72.4705 20.4512 71.6647 20.3039 71.0408 20.0093C70.4343 19.6973 69.9578 19.2728 69.6112 18.7356C69.2819 18.1984 69.0567 17.5659 68.9354 16.838C68.8314 16.1102 68.7794 15.3217 68.7794 14.4726V7.50627H72.6785V13.6928C72.6785 14.0567 72.6871 14.4379 72.7045 14.8365C72.7391 15.2178 72.8171 15.573 72.9384 15.9023C73.077 16.2315 73.2763 16.5001 73.5363 16.7081C73.8135 16.916 74.2034 17.02 74.706 17.02C75.2085 17.02 75.6158 16.9333 75.9277 16.7601C76.2396 16.5694 76.4735 16.3268 76.6295 16.0322C76.8028 15.7203 76.9154 15.3737 76.9674 14.9925C77.0194 14.6112 77.0454 14.2127 77.0454 13.7968V7.50627H80.9445V20.1392Z" fill="#002B64"/>
<path fill-rule="evenodd" clip-rule="evenodd" d="M99.6106 13.8228C99.6106 12.8177 99.7926 11.9079 100.157 11.0934C100.52 10.2789 101.014 9.58577 101.638 9.01391C102.279 8.42472 103.025 7.97416 103.874 7.66223C104.74 7.35031 105.659 7.19434 106.629 7.19434C107.599 7.19434 108.509 7.35031 109.358 7.66223C110.225 7.97416 110.97 8.42472 111.594 9.01391C112.235 9.58577 112.738 10.2789 113.101 11.0934C113.465 11.9079 113.647 12.8177 113.647 13.8228C113.647 14.8278 113.465 15.7376 113.101 16.5521C112.738 17.3666 112.235 18.0684 111.594 18.6576C110.97 19.2295 110.225 19.6714 109.358 19.9833C108.509 20.2952 107.599 20.4512 106.629 20.4512C105.659 20.4512 104.74 20.2952 103.874 19.9833C103.025 19.6714 102.279 19.2295 101.638 18.6576C101.014 18.0684 100.52 17.3666 100.157 16.5521C99.7926 15.7376 99.6106 14.8278 99.6106 13.8228ZM103.51 13.8228C103.51 14.7759 103.778 15.547 104.316 16.1362C104.87 16.7254 105.641 17.02 106.629 17.02C107.617 17.02 108.379 16.7254 108.916 16.1362C109.471 15.547 109.748 14.7759 109.748 13.8228C109.748 12.8697 109.471 12.0985 108.916 11.5093C108.379 10.9201 107.617 10.6255 106.629 10.6255C105.641 10.6255 104.87 10.9201 104.316 11.5093C103.778 12.0985 103.51 12.8697 103.51 13.8228Z" fill="#002B64"/>
<path d="M118.595 7.50627H114.436L119.063 20.1392H122.988L125.328 11.7433H125.38L128.005 20.1392H131.852L136.349 7.50627H132.398L130.033 15.4344H129.981L127.641 7.50627H123.378L121.221 15.4344H121.169L118.595 7.50627Z" fill="#002B64"/>
<path d="M4.3323 5.22422C4.3323 3.95479 5.46381 2.98404 6.71848 3.17707L21.8418 5.50373C22.5688 5.61559 23.1056 6.2412 23.1056 6.97685C23.1056 7.84505 22.3665 8.5295 21.5008 8.46291L6.24468 7.28936C5.16557 7.20636 4.3323 6.30652 4.3323 5.22422Z" fill="#002B64"/>
<path d="M2.8882 22.0906C2.8882 20.9928 3.7393 20.0831 4.8346 20.0101L22.9655 18.8014C23.8228 18.7442 24.5497 19.4242 24.5497 20.2835C24.5497 21.0279 23.9985 21.6574 23.2606 21.7558L5.24888 24.1574C3.99889 24.3241 2.8882 23.3516 2.8882 22.0906Z" fill="#002B64"/>
<path d="M0 13.641C0 12.4596 0.983809 11.5159 2.16423 11.565L15.8863 12.1365C16.6927 12.1701 17.3292 12.8336 17.3292 13.6407C17.3292 14.4478 16.6928 15.1113 15.8864 15.1449L2.16431 15.717C0.983859 15.7662 0 14.8225 0 13.641Z" fill="#002B64"/>
</svg>
